<svg xmlns="http://www.w3.org/2000/svg" xmlns:xlink="http://www.w3.org/1999/xlink" viewBox="0,0,256,256" width="480px" height="480px"><g fill="#ffffff" fill-rule="nonzero" stroke="none" stroke-width="1" stroke-linecap="butt" stroke-linejoin="miter" stroke-miterlimit="10" stroke-dasharray="" stroke-dashoffset="0" font-family="none" font-weight="none" font-size="none" text-anchor="none" style="mix-blend-mode: normal"><path d="M25.6,256c-14.13849,0 -25.6,-11.46151 -25.6,-25.6v-204.8c0,-14.13849 11.46151,-25.6 25.6,-25.6h204.8c14.13849,0 25.6,11.46151 25.6,25.6v204.8c0,14.13849 -11.46151,25.6 -25.6,25.6z" id="shape"></path></g><g fill="#000000" fill-rule="nonzero" stroke="none" stroke-width="1" stroke-linecap="butt" stroke-linejoin="miter" stroke-miterlimit="10" stroke-dasharray="" stroke-dashoffset="0" font-family="none" font-weight="none" font-size="none" text-anchor="none" style="mix-blend-mode: normal"><g transform="scale(10.66667,10.66667)"><path d="M4,4c-1.105,0 -2,0.895 -2,2v12c0,1.105 0.895,2 2,2h16c1.105,0 2,-0.895 2,-2v-12c0,-1.105 -0.895,-2 -2,-2zM5.59766,6h12.80469l-6.40234,4zM5,8.62695l7,4.37305l7,-4.37305v9.37305h-14z"></path></g></g></svg>